<?xml version="1.0" encoding="UTF-8"?>
<!DOCTYPE svg PUBLIC "-//W3C//DTD SVG 1.1//EN" "http://www.w3.org/Graphics/SVG/1.1/DTD/svg11.dtd">
<svg version="1.1" xmlns="http://www.w3.org/2000/svg" xmlns:xlink="http://www.w3.org/1999/xlink" x="0" y="0" width="920" height="920" viewBox="0, 0, 920, 920">
  <defs>
    <linearGradient id="Gradient_1" gradientUnits="userSpaceOnUse" x1="258.469" y1="746.862" x2="781.752" y2="746.862">
      <stop offset="0" stop-color="#5F6D38"/>
      <stop offset="0.333" stop-color="#293718"/>
      <stop offset="0.655" stop-color="#DEA15E"/>
      <stop offset="1" stop-color="#BC6C25"/>
    </linearGradient>
  </defs>
  <g id="Ebene_1" transform="translate(-40, -34)">
    <g id="Pallette_5">
      <path d="M335.183,539.724 C303.762,580.438 285.067,631.76 285.067,687.53 C285.067,764.351 320.601,832.717 375.85,876.514 L374.35,874.278 C372.729,862.204 371.822,849.866 371.822,837.328 C371.822,782.625 388.025,731.824 415.77,689.503 L448.573,689.502 C417.152,730.216 398.419,781.538 398.419,837.328 C398.419,857.794 400.948,877.701 405.691,896.679 C439.561,915.939 478.574,926.926 520.111,926.926 C563.984,926.926 605.046,914.651 640.223,893.337 C643.029,878.481 644.529,863.166 644.529,847.492 C644.529,791.721 625.796,740.399 594.375,699.686 L627.178,699.686 C654.885,741.988 671.089,792.808 671.089,847.492 C671.089,855.745 670.732,863.894 669.984,871.922 C722.037,828.006 755.155,761.732 755.155,687.53 C755.155,631.76 736.422,580.442 705.039,539.724 L737.803,539.724 L737.803,539.729 C765.548,582.013 781.752,632.852 781.752,687.535 C781.752,794.019 720.373,885.897 631.724,928.583 L630.144,930.053 L630.459,929.167 C596.942,945.086 559.556,954 520.111,954 C375.615,954 258.469,834.694 258.469,687.53 C258.469,632.847 274.673,582.013 302.38,539.724 L335.183,539.724 z" fill="url(#Gradient_1)"/>
      <g>
        <path d="M858.358,443.279 C910.388,397.798 941.479,336.535 960,282.442 C926.42,279.206 884.619,278.432 841.009,285.48 C803.342,291.573 764.368,303.485 728.262,324.835 C687.72,348.808 648.243,392.241 614.942,442.855 C608.069,453.295 577.934,506.692 572.22,520.407 C586.391,516.738 662.601,485.077 682.106,477.823 C730.621,459.771 766.575,453.95 766.575,453.95 C766.575,453.95 743.333,483.418 703.189,517.81 C754.496,506.259 811.373,484.342 858.358,443.279" fill="#BC6C25"/>
        <path d="M647.324,294.573 C647.324,294.573 651.351,332.148 646.84,385.376 C675.102,340.253 700.105,283.797 704.814,220.924 C710.036,151.298 689.482,85.587 665.014,34 C639.027,55.897 608.933,85.45 582.985,121.842 C560.586,153.276 541.301,189.763 530.588,230.86 C518.57,277.009 520.81,336.145 532.397,395.921 C534.793,408.253 550.557,467.713 556.037,481.526 C563.513,468.717 595.416,391.457 604.167,372.278 C625.947,324.578 647.324,294.573 647.324,294.573" fill="#DEA15E"/>
        <path d="M452.347,267.749 C452.347,267.749 481.287,291.416 515.05,332.309 C503.707,280.048 482.186,222.122 441.862,174.27 C397.212,121.284 337.059,89.615 283.944,70.758 C280.769,104.955 280.004,147.526 286.927,191.943 C292.912,230.302 304.605,269.988 325.565,306.762 C349.109,348.053 391.75,388.261 441.447,422.177 C451.701,429.174 504.135,459.863 517.6,465.679 C513.995,451.243 482.911,373.64 475.784,353.778 C458.063,304.361 452.347,267.749 452.347,267.749" fill="#293718"/>
        <path d="M295.849,389.192 C295.849,389.192 332.749,385.092 385.016,389.684 C340.707,360.903 285.273,335.439 223.535,330.645 C155.167,325.329 90.656,346.259 40,371.18 C61.501,397.646 90.512,428.299 126.248,454.715 C157.115,477.53 192.935,497.175 233.293,508.078 C278.605,520.322 336.677,518.045 395.369,506.234 C407.478,503.802 465.857,487.741 479.418,482.162 C466.846,474.55 390.984,442.058 372.152,433.145 C325.319,410.962 295.849,389.192 295.849,389.192" fill="#5F6D38"/>
      </g>
    </g>
  </g>
</svg>
