<?xml version="1.0" encoding="UTF-8"?>
<!DOCTYPE svg PUBLIC "-//W3C//DTD SVG 1.1//EN" "http://www.w3.org/Graphics/SVG/1.1/DTD/svg11.dtd">
<svg version="1.1" xmlns="http://www.w3.org/2000/svg" xmlns:xlink="http://www.w3.org/1999/xlink" x="0" y="0" width="202.637" height="239.35" viewBox="0, 0, 202.637, 239.35">
  <defs>
    <clipPath id="Clip_1">
      <path d="M0,-0 L202.637,-0 L202.637,239.35 L0,239.35 z"/>
    </clipPath>
  </defs>
  <g id="1">
    <g clip-path="url(#Clip_1)">
      <path d="M137.206,63.035 C128.02,53.849 115.332,48.167 101.318,48.167 C87.305,48.167 74.616,53.849 65.43,63.035 C56.246,72.22 50.563,84.91 50.563,98.923 C50.563,114.525 57.64,127.688 64.876,141.147 C72.087,154.56 79.448,168.252 80.865,185.332 L121.768,185.332 C123.186,168.254 130.547,154.561 137.759,141.148 C144.995,127.689 152.074,114.526 152.074,98.923 C152.074,84.91 146.391,72.22 137.206,63.035 M101.318,40.715 C117.389,40.715 131.941,47.232 142.476,57.766 C153.009,68.3 159.525,82.852 159.525,98.923 C159.525,116.369 152.002,130.363 144.309,144.671 C136.999,158.264 129.528,172.16 128.983,189.175 L128.867,192.784 L125.271,192.784 L77.362,192.784 L73.766,192.784 L73.65,189.175 C73.105,172.159 65.635,158.264 58.327,144.67 C50.634,130.362 43.111,116.369 43.111,98.923 C43.111,82.852 49.628,68.3 60.162,57.766 C70.695,47.232 85.248,40.715 101.318,40.715" fill="#1A1919"/>
      <path d="M121.327,207.096 L81.309,207.096 L81.309,224.84 C99.463,233.657 103.174,233.657 121.327,224.84 z M128.779,199.644 L128.779,229.654 C106.705,242.582 96.075,242.582 73.857,229.654 L73.857,199.644 z" fill="#1A1919"/>
      <path d="M129.234,96.915 C129.234,103.98 126.298,109.781 122.372,115.474 L109.116,134.968 C105.634,139.841 106.308,146.011 106.308,151.656 L98.355,151.656 C98.355,143.576 98.134,137.559 102.878,130.602 L115.978,111.263 C118.958,106.694 121.28,102.521 121.28,96.915 C121.28,85.598 112.806,76.485 101.318,76.485 C89.757,76.485 81.356,85.49 81.356,96.915 L73.401,96.915 C73.401,81.221 85.778,69.466 101.318,69.466 C116.741,69.466 129.234,81.356 129.234,96.915" fill="#1A1919"/>
      <path d="M47.466,15.493 C49.565,14.173 51.716,12.929 53.915,11.762 L68.568,37.139 C66.349,38.275 64.198,39.524 62.12,40.875 z M11.763,53.914 C12.929,51.715 14.174,49.564 15.494,47.465 L40.876,62.118 C39.525,64.197 38.276,66.347 37.141,68.566 z M0.076,105.043 C0.031,103.806 -0,102.565 -0,101.317 C-0,100.069 0.031,98.828 0.076,97.591 L29.374,97.591 C29.311,98.825 29.279,100.068 29.279,101.317 C29.279,102.567 29.311,103.809 29.374,105.043 z M15.494,155.17 C14.174,153.071 12.929,150.92 11.763,148.721 L37.141,134.068 C38.276,136.287 39.525,138.437 40.876,140.516 z M190.874,148.721 C189.708,150.92 188.463,153.07 187.143,155.17 L161.761,140.516 C163.112,138.437 164.362,136.287 165.496,134.068 z M202.562,97.591 C202.607,98.828 202.637,100.069 202.637,101.317 C202.637,102.565 202.607,103.806 202.562,105.043 L173.263,105.043 C173.326,103.809 173.358,102.567 173.358,101.317 C173.358,100.068 173.326,98.826 173.263,97.591 z M187.143,47.465 C188.463,49.564 189.707,51.715 190.874,53.914 L165.496,68.566 C164.362,66.347 163.112,64.197 161.761,62.118 z M148.722,11.762 C150.92,12.929 153.071,14.173 155.171,15.493 L140.518,40.874 C138.439,39.524 136.288,38.275 134.07,37.139 z M101.319,-0.001 C102.567,-0.001 103.808,0.029 105.044,0.075 L105.044,29.373 C103.811,29.31 102.569,29.278 101.319,29.278 C100.069,29.278 98.827,29.31 97.592,29.373 L97.592,0.075 C98.83,0.029 100.07,-0.001 101.319,-0.001" fill="#1A1919"/>
      <path d="M102.401,167.697 C105.651,167.697 108.302,165.046 108.302,161.796 C108.302,158.546 105.651,155.894 102.401,155.894 C99.151,155.894 96.5,158.546 96.5,161.796 C96.5,165.046 99.151,167.697 102.401,167.697" fill="#1A1919"/>
    </g>
  </g>
</svg>
