<?xml version="1.0" encoding="UTF-8"?>
<!DOCTYPE svg PUBLIC "-//W3C//DTD SVG 1.1//EN" "http://www.w3.org/Graphics/SVG/1.1/DTD/svg11.dtd">
<svg version="1.1" xmlns="http://www.w3.org/2000/svg" xmlns:xlink="http://www.w3.org/1999/xlink" x="0" y="0" width="222.524" height="246.95" viewBox="0, 0, 222.524, 246.95">
  <g id="Ebene_1">
    <path d="M184.392,77.366 C182.728,76.102 181.394,73.252 181.414,67.302 C171.098,71.638 158.871,63.031 161.413,50.121 C155.217,50.728 152.275,49.664 150.94,48.17 L185.776,28.475 L199.228,40.221 z M168.398,89.002 L151.481,108.361 L146.426,103.958 L163.355,84.584 C164.572,83.201 166.675,83.054 168.08,84.265 C169.475,85.488 169.617,87.604 168.398,89.002 M129.746,89.416 L124.692,85.01 L142.726,64.362 C143.95,62.965 146.068,62.833 147.463,64.056 C148.858,65.264 148.999,67.393 147.786,68.78 z M124.448,132.418 C119.196,138.55 109.969,139.259 103.84,134.012 C97.711,128.762 96.989,119.541 102.234,113.407 C107.496,107.277 116.728,106.561 122.856,111.812 C128.982,117.059 129.704,126.284 124.448,132.418 M135.519,49.203 L135.75,49.404 L113.309,75.089 L113.289,75.071 C101.335,84.396 90.64,94.797 80.95,106.06 C68.146,120.982 57.138,137.435 48.475,155.905 C47.402,158.22 46.361,160.556 45.355,162.935 C44.38,165.331 43.379,167.719 42.484,170.18 C41.874,171.811 41.288,173.469 40.71,175.137 L74.402,203.983 C75.96,203.155 77.51,202.321 79.031,201.474 C81.329,200.202 83.522,198.841 85.751,197.518 C87.935,196.169 90.094,194.764 92.222,193.348 C109.127,181.951 123.684,168.533 136.464,153.583 C144.429,144.236 151.653,134.251 158.102,123.605 L185.19,92.605 L185.428,92.823 L222.524,-0 z" fill="#6B6C6E"/>
    <path d="M40.045,162.389 L40.639,160.943 C41.62,158.618 42.676,156.26 43.833,153.752 C48.625,143.548 54.287,133.618 60.761,124.047 L38.609,122.912 L0,182.612 L38.264,166.888 C38.854,165.362 39.451,163.865 40.045,162.389" fill="#6B6C6E"/>
    <path d="M95.072,197.582 C92.747,199.136 90.588,200.539 88.448,201.863 L87.104,202.675 C85.751,203.488 84.354,204.319 82.926,205.134 L73.282,245.355 L126.329,198.014 L121.796,176.298 C113.333,184.183 104.406,191.297 95.072,197.582" fill="#6B6C6E"/>
    <path d="M44.637,226.317 C46.31,225.248 49.677,221.275 53.017,215.21 C42.676,215.21 31.56,219.658 25.612,227.31 C28.578,218.555 25.14,208.82 39.754,201.091 C32.361,199.854 27.888,200.518 22.917,203.327 C25.543,198.762 27.229,189.117 39.426,185.044 C19.055,187.046 13.204,213.145 6.59,218.894 C15.057,219.989 15.658,211.568 25.176,209.892 C7.301,219.718 12.045,241.436 4.236,246.596 C25.308,250.077 27.668,226.82 40.012,224.3 C29.142,230.106 30.352,239.312 29.374,243.362 C34.128,235.382 59.72,233.492 64.274,207.909 C61.716,215.235 51.678,226.633 44.637,226.317" fill="#6B6C6E"/>
  </g>
</svg>
