<?xml version="1.0" encoding="UTF-8"?>
<!DOCTYPE svg PUBLIC "-//W3C//DTD SVG 1.1//EN" "http://www.w3.org/Graphics/SVG/1.1/DTD/svg11.dtd">
<svg version="1.1" xmlns="http://www.w3.org/2000/svg" xmlns:xlink="http://www.w3.org/1999/xlink" x="0" y="0" width="51.842" height="42.438" viewBox="0, 0, 51.842, 42.438">
  <g id="1">
    <path d="M29.373,23.988 C29.093,24.204 28.785,24.392 28.461,24.543 C28.271,24.632 28.071,24.709 27.866,24.774 C27.374,24.93 27.044,25.365 27.044,25.859 L27.044,27.133 L25.371,27.133 L25.371,25.748 C25.371,25.276 25.072,24.859 24.608,24.683 C24.113,24.497 23.66,24.235 23.258,23.906 C22.871,23.589 22.312,23.54 21.868,23.784 L20.569,24.497 L19.732,23.12 L21.081,22.38 C21.513,22.143 21.75,21.672 21.671,21.206 C21.59,20.728 21.59,20.243 21.671,19.764 C21.751,19.299 21.515,18.829 21.085,18.592 L19.732,17.851 L20.569,16.474 L21.871,17.188 C22.315,17.431 22.871,17.382 23.257,17.065 C23.565,16.813 23.906,16.598 24.271,16.428 C24.383,16.375 24.497,16.328 24.613,16.285 C25.073,16.111 25.371,15.694 25.371,15.222 L25.371,13.838 L27.044,13.838 L27.044,15.112 C27.044,15.606 27.374,16.042 27.865,16.197 C28.418,16.371 28.926,16.636 29.373,16.982 C29.756,17.279 30.303,17.321 30.733,17.084 L31.846,16.474 L32.683,17.851 L31.617,18.435 C31.174,18.679 30.942,19.162 31.038,19.638 C31.151,20.199 31.151,20.77 31.037,21.334 C30.941,21.81 31.174,22.293 31.618,22.536 L32.683,23.12 L31.846,24.497 L30.733,23.887 C30.303,23.65 29.757,23.69 29.373,23.988 M33.305,25.638 L34.452,23.75 C34.658,23.409 34.714,23.011 34.607,22.631 C34.499,22.25 34.243,21.932 33.883,21.735 L32.94,21.217 C33,20.73 33.001,20.24 32.941,19.754 L33.883,19.237 C34.243,19.039 34.499,18.721 34.607,18.34 C34.714,17.96 34.658,17.562 34.452,17.221 L33.305,15.333 C32.876,14.628 31.926,14.387 31.184,14.793 L30.18,15.344 C29.783,15.077 29.358,14.855 28.907,14.678 L28.907,13.544 C28.907,12.73 28.211,12.068 27.354,12.068 L25.061,12.068 C24.205,12.068 23.508,12.73 23.508,13.544 L23.508,14.813 C23.49,14.821 23.471,14.829 23.452,14.838 C23.086,15.008 22.738,15.211 22.412,15.441 L21.232,14.793 C20.49,14.387 19.539,14.628 19.111,15.333 L17.964,17.221 C17.536,17.925 17.791,18.829 18.532,19.237 L19.775,19.918 C19.738,20.296 19.738,20.676 19.774,21.053 L18.532,21.735 C17.791,22.141 17.536,23.045 17.964,23.75 L19.111,25.638 C19.539,26.343 20.491,26.585 21.232,26.179 L22.413,25.53 C22.755,25.772 23.122,25.982 23.508,26.157 L23.508,27.427 C23.508,28.241 24.205,28.903 25.061,28.903 L27.354,28.903 C28.211,28.903 28.907,28.241 28.907,27.427 L28.907,26.294 C29.034,26.244 29.158,26.19 29.281,26.133 C29.594,25.987 29.895,25.817 30.179,25.627 L31.184,26.179 C31.925,26.585 32.876,26.342 33.305,25.638" fill="#000000"/>
    <path d="M26.208,22.303 C25.153,22.303 24.295,21.488 24.295,20.485 C24.295,19.483 25.153,18.667 26.208,18.667 C27.263,18.667 28.12,19.483 28.12,20.485 C28.12,21.488 27.263,22.303 26.208,22.303 M26.208,16.897 C24.127,16.897 22.433,18.507 22.433,20.485 C22.433,22.463 24.127,24.073 26.208,24.073 C28.289,24.073 29.983,22.463 29.983,20.485 C29.983,18.507 28.289,16.897 26.208,16.897" fill="#808080"/>
    <path d="M9.889,6.77 C10.786,6.77 11.515,7.463 11.515,8.316 C11.515,9.167 10.786,9.86 9.889,9.86 C8.993,9.86 8.263,9.167 8.263,8.316 C8.263,7.463 8.993,6.77 9.889,6.77 M9.889,11.631 C11.49,11.631 12.838,10.6 13.248,9.201 L17.898,9.201 C18.758,10.701 19.617,12.201 20.477,13.702 C21.05,14.702 22.659,13.81 22.085,12.808 L19.256,7.869 C19.1,7.598 18.772,7.43 18.452,7.43 L13.248,7.43 C12.838,6.031 11.49,5 9.889,5 C7.966,5 6.4,6.487 6.4,8.316 C6.4,10.144 7.966,11.631 9.889,11.631" fill="#000000"/>
    <path d="M42.527,6.77 C43.424,6.77 44.153,7.463 44.153,8.316 C44.153,9.167 43.424,9.86 42.527,9.86 C41.63,9.86 40.901,9.167 40.901,8.316 C40.901,7.463 41.63,6.77 42.527,6.77 M31.939,13.702 C32.799,12.201 33.658,10.701 34.517,9.201 L39.168,9.201 C39.577,10.6 40.926,11.631 42.527,11.631 C44.451,11.631 46.016,10.144 46.016,8.316 C46.016,6.487 44.451,5 42.527,5 C40.926,5 39.577,6.031 39.168,7.43 L33.964,7.43 C33.644,7.43 33.316,7.598 33.16,7.869 C32.217,9.515 31.274,11.162 30.331,12.808 C29.757,13.809 31.365,14.703 31.939,13.702" fill="#808080"/>
    <path d="M42.527,34.048 C41.63,34.048 40.901,33.355 40.901,32.503 C40.901,31.651 41.63,30.958 42.527,30.958 C43.424,30.958 44.153,31.651 44.153,32.503 C44.153,33.355 43.424,34.048 42.527,34.048 M42.527,29.187 C40.926,29.187 39.577,30.219 39.168,31.618 L34.517,31.618 C33.658,30.117 32.799,28.617 31.939,27.117 C31.366,26.116 29.757,27.009 30.331,28.01 C31.274,29.657 32.217,31.303 33.16,32.95 C33.316,33.221 33.644,33.388 33.964,33.388 L39.168,33.388 C39.577,34.787 40.926,35.819 42.527,35.819 C44.451,35.819 46.016,34.331 46.016,32.503 C46.016,30.675 44.451,29.187 42.527,29.187" fill="#808080"/>
    <path d="M9.889,34.048 C8.993,34.048 8.263,33.355 8.263,32.503 C8.263,31.651 8.993,30.958 9.889,30.958 C10.786,30.958 11.515,31.651 11.515,32.503 C11.515,33.355 10.786,34.048 9.889,34.048 M20.477,27.117 C19.617,28.617 18.758,30.117 17.898,31.618 L13.248,31.618 C12.838,30.219 11.49,29.187 9.889,29.187 C7.966,29.187 6.4,30.675 6.4,32.503 C6.4,34.331 7.966,35.819 9.889,35.819 C11.49,35.819 12.838,34.787 13.247,33.388 L18.452,33.388 C18.772,33.388 19.1,33.221 19.256,32.95 C20.199,31.303 21.142,29.657 22.085,28.01 C22.659,27.009 21.051,26.115 20.477,27.117" fill="#808080"/>
    <path d="M42.527,21.737 C41.63,21.737 40.901,21.045 40.901,20.192 C40.901,19.34 41.63,18.647 42.527,18.647 C43.424,18.647 44.153,19.34 44.153,20.192 C44.153,21.045 43.424,21.737 42.527,21.737 M42.527,16.876 C40.926,16.876 39.577,17.907 39.168,19.306 L35.131,19.306 C33.932,19.306 33.93,21.077 35.131,21.077 L39.168,21.077 C39.577,22.476 40.926,23.508 42.527,23.508 C44.451,23.508 46.016,22.02 46.016,20.192 C46.016,18.363 44.451,16.876 42.527,16.876" fill="#000000"/>
    <path d="M9.918,21.737 C9.021,21.737 8.291,21.045 8.291,20.192 C8.291,19.34 9.021,18.647 9.918,18.647 C10.814,18.647 11.544,19.34 11.544,20.192 C11.544,21.045 10.814,21.737 9.918,21.737 M9.918,16.876 C7.994,16.876 6.429,18.363 6.429,20.192 C6.429,22.02 7.994,23.508 9.918,23.508 C11.519,23.508 12.868,22.476 13.276,21.077 L17.313,21.077 C18.512,21.077 18.514,19.306 17.313,19.306 L13.276,19.306 C12.868,17.907 11.519,16.876 9.918,16.876" fill="#808080"/>
  </g>
</svg>
