<?xml version="1.0" encoding="UTF-8"?>
<!DOCTYPE svg PUBLIC "-//W3C//DTD SVG 1.1//EN" "http://www.w3.org/Graphics/SVG/1.1/DTD/svg11.dtd">
<svg version="1.1" xmlns="http://www.w3.org/2000/svg" xmlns:xlink="http://www.w3.org/1999/xlink" x="0" y="0" width="1000" height="1000" viewBox="0, 0, 1000, 1000">
  <g id="Ebene_1">
    <path d="M0,0 L1000,0 L1000,1000 L0,1000 z" fill="#F6F3E9" display="none"/>
    <g>
      <path d="M819.47,538.42 C818.59,538.22 817.71,538.1 816.84,538 C815.17,537.81 813.49,537.77 811.77,537.82 C804.23,538.05 795.89,539.87 783.77,537.19 C774.27,535.09 746.33,528.91 742.3,528.02 C736.67,526.78 736.42,524.56 737.37,520.29 C737.66,518.96 738.02,517.33 738.38,515.71 C738.38,515.71 739.16,512.18 739.95,508.59 C740.31,506.97 740.67,505.34 740.96,504.01 C741.91,499.74 743.07,497.84 748.69,499.08 C754.31,500.33 773.83,504.64 790.17,508.25 C793.81,509.05 796.96,510.09 799.78,511.22 C806.35,513.87 811.11,517.11 815.82,519.48 C818.17,520.66 820.51,521.62 823.06,522.19 C828.55,523.4 834.78,522.5 839.33,519.05 C839.35,519.03 839.37,519.02 839.39,519.01 C839.41,519 839.43,518.98 839.43,518.98 L845.55,520.33 L844.47,525.22 L848.96,526.21 L847.54,532.62 C861.05,535.61 888,541.57 906.59,545.68 C919.87,548.62 925.7,545.78 925.7,545.78 L930.78,548.07 L942.13,553.2 L941.37,556.64 L941.28,557.04 L940.52,560.48 L928.06,560.35 L922.49,560.29 C922.49,560.29 918.4,555.26 905.12,552.32 C886.53,548.21 859.58,542.25 846.07,539.26 L844.65,545.67 L840.16,544.68 L839.08,549.57 L832.96,548.22 L832.96,548.22 C832.96,548.22 832.96,548.22 832.96,548.22 L832.96,548.22 C830.27,543.11 825.04,539.63 819.47,538.4 z M794.36,518.2 C795.51,518.45 796.65,517.73 796.91,516.58 L796.91,516.58 C797.17,515.43 796.44,514.29 795.29,514.03 L747.58,503.48 C746.43,503.23 745.29,503.95 745.03,505.11 L745.03,505.11 C744.77,506.26 745.5,507.4 746.66,507.66 L794.37,518.21 z M792.6,526.17 C793.75,526.42 794.89,525.7 795.15,524.55 L795.15,524.55 C795.4,523.4 794.68,522.26 793.52,522 L745.81,511.45 C744.66,511.19 743.52,511.92 743.26,513.07 L743.26,513.07 C743.01,514.22 743.73,515.36 744.89,515.62 L792.6,526.17 z M790.84,534.14 C791.99,534.39 793.13,533.67 793.39,532.52 L793.39,532.52 C793.64,531.37 792.92,530.23 791.76,529.97 L744.05,519.42 C742.9,519.17 741.76,519.89 741.5,521.04 L741.5,521.04 C741.25,522.19 741.97,523.33 743.13,523.59 L790.84,534.14 z" fill="#281A10"/>
      <path d="M196.26,490.76 C224.43,501.46 247.05,501.37 257.46,501.55 C263.2,501.65 265.27,498.37 265.47,495.02 C265.61,492.63 264.25,488.79 259.47,488.74 C250.48,488.64 241.66,490.31 212.5,482.38 C181.26,473.88 158.72,452.98 156.12,452.47 L153.52,451.96 C152.87,451.04 151.88,450.36 150.69,450.13 C149.5,449.9 148.33,450.15 147.38,450.75 L143.39,449.97 C143.39,449.97 143.27,450.57 143.08,451.56 L136.86,450.34 L137.41,447.52 L137.96,444.7 L144.18,445.92 C143.98,446.91 143.87,447.51 143.87,447.51 L147.86,448.29 C148.51,449.21 149.5,449.89 150.69,450.12 C151.88,450.35 153.05,450.1 154,449.49 L156.6,450 C159.2,450.51 187.97,439.68 220.1,443.63 C250.09,447.31 257.63,452.19 265.99,455.5 C270.43,457.25 273.14,454.21 273.91,451.95 C275,448.78 274.32,444.96 268.97,442.88 C259.27,439.11 238.36,430.48 208.23,429.73 C178.36,428.99 164.04,436.14 159.81,435.08 C159.78,435.08 159.75,435.08 159.73,435.07 C159.66,435.06 159.61,435.04 159.54,435.02 C154.48,434.03 148.16,425.59 146.92,431.94 C146.73,432.91 146.53,433.95 146.32,435.01 L126.38,431.1 L117.04,429.27 L77.42,429.92 L76.32,435.53 L75.22,441.14 L111.66,456.73 L121,458.56 L140.94,462.47 C140.73,463.53 140.53,464.57 140.34,465.54 C139.09,471.88 148.13,466.46 153.19,467.46 C153.26,467.47 153.32,467.48 153.38,467.49 C153.41,467.49 153.43,467.5 153.46,467.51 C157.78,468.13 168.33,480.17 196.26,490.77 z M76.83,435.62 L77.33,435.22 L77.65,435.78 L77.14,436.18 L76.82,435.62 z M78.44,435.94 L78.95,435.54 L79.26,436.1 L78.76,436.5 L78.44,435.94 z M80.05,436.26 L80.56,435.86 L80.88,436.42 L80.38,436.82 L80.06,436.26 z M81.66,436.58 L82.17,436.18 L82.49,436.74 L81.98,437.14 L81.66,436.57 z M82.86,436.82 C84.13,435.85 86.1,435.42 88.17,435.83 C90.24,436.24 91.91,437.38 92.71,438.75 C91.44,439.72 89.47,440.15 87.4,439.74 C85.33,439.33 83.66,438.19 82.86,436.82 z M117.7,443.66 C118.35,440.36 121.56,438.2 124.86,438.85 C128.16,439.5 130.32,442.71 129.67,446.01 C129.02,449.31 125.81,451.47 122.51,450.82 C119.21,450.17 117.05,446.96 117.7,443.66 z" fill="#281A10"/>
      <path d="M789.76,822.44 C789.44,822.88 789.17,823.4 788.96,824.07 C787.62,828.31 783.28,845.56 784.95,847.1 C786.62,848.64 803.45,842.91 807.58,841.22 C808.54,840.83 809.19,840.33 809.67,839.75 C811.23,837.88 810.9,835.19 813.3,832.59 C814.98,830.77 817.42,830.3 819.74,829.82 C821.75,829.4 823.66,828.96 824.9,827.62 C827.56,824.74 834.76,816.92 837.79,813.64 C839.2,812.11 839.72,809.9 840.1,807.73 C840.53,805.23 840.76,802.8 841.89,801.57 C844,799.28 851.71,799.4 851.71,799.4 L863.13,785.02 L840.47,764.14 L827.06,776.69 C827.06,776.69 827.8,784.37 825.69,786.66 C824.31,788.16 821.04,788.47 818.1,789.41 L818.1,789.41 C816.66,789.87 815.31,790.49 814.28,791.46 L792.06,770.58 L748.58,729.72 L685.91,670.84 C684.27,669.29 682.07,668.46 679.81,668.54 C677.55,668.62 675.42,669.6 673.89,671.26 L671.36,674 C669.83,675.66 669.02,677.87 669.13,680.13 C669.24,682.39 670.24,684.51 671.92,686.02 L749.67,756.3 L793.09,795.55 L802.58,804.13 C802.02,804.74 801.52,805.28 801.13,805.71 C800.38,806.52 799.99,807.55 799.74,808.69 C799.09,811.61 799.37,815.23 797.12,817.67 C794.49,820.53 791.48,820.11 789.79,822.44 z" fill="#281A10"/>
      <path d="M765.95,719.3 C776.62,728.49 789.53,739.62 789.53,739.62 L793.92,739.21 L816.12,758.34 C817.88,756.71 820.62,756.63 822.48,758.23 C822.78,758.49 823.04,758.78 823.26,759.09 L834.56,754.84 L839.46,753 L807.38,725.36 L806.84,719.53 C788.01,703.31 746.99,667.62 736,650.5 C725.01,633.38 729.36,628.49 726.2,625.76 C722.29,622.39 709.51,621.32 701.14,631.04 C693.56,639.84 691.86,650.76 695.74,661.11 C697.98,667.11 702.09,672.93 708.02,678.03 C721.99,690.07 755.3,710.1 765.97,719.29 z M743.52,672.92 L740.62,676.28 C740.68,676.35 740.73,676.42 740.8,676.48 C741.91,677.44 743,676.17 744.12,677.13 C745.23,678.09 744.14,679.36 745.25,680.32 C746.36,681.28 747.46,680.01 748.57,680.97 C749.68,681.93 748.59,683.2 749.7,684.16 C750.81,685.12 751.91,683.85 753.02,684.81 C754.13,685.77 753.04,687.04 754.15,688 C755.26,688.96 756.36,687.69 757.47,688.65 C758.58,689.61 757.49,690.88 758.6,691.84 C759.71,692.8 760.81,691.53 761.92,692.49 C763.03,693.45 761.94,694.72 763.05,695.68 C764.16,696.64 765.26,695.37 766.37,696.33 C767.48,697.29 766.39,698.56 767.5,699.52 C768.61,700.48 769.71,699.21 770.82,700.17 C771.93,701.13 770.84,702.4 771.95,703.36 C773.07,704.32 774.16,703.05 775.27,704.01 C776.38,704.97 775.29,706.24 776.4,707.2 C777.51,708.16 778.61,706.89 779.72,707.85 C780.84,708.81 779.74,710.08 780.86,711.04 C781.97,712 783.07,710.73 784.18,711.69 C785.3,712.65 784.2,713.92 785.32,714.88 C786.43,715.84 787.53,714.57 788.64,715.53 C789.75,716.49 788.66,717.76 789.77,718.72 C790.88,719.68 791.98,718.41 793.09,719.37 C794.21,720.33 793.11,721.6 794.23,722.56 C795.35,723.52 796.44,722.26 797.55,723.22 C798.4,723.95 797.97,724.86 798.21,725.68 L796.24,727.97 L795.72,728.58 L793.75,730.87 C792.91,730.75 792.07,731.31 791.22,730.58 C790.11,729.62 791.2,728.35 790.08,727.39 C788.97,726.43 787.87,727.7 786.76,726.74 C785.65,725.78 786.74,724.51 785.62,723.55 C784.51,722.59 783.41,723.86 782.3,722.9 C781.18,721.94 782.28,720.67 781.16,719.71 C780.05,718.75 778.95,720.02 777.84,719.06 C776.73,718.1 777.82,716.83 776.71,715.87 C775.6,714.91 774.5,716.18 773.39,715.22 C772.28,714.26 773.37,712.99 772.25,712.03 C771.14,711.07 770.05,712.34 768.93,711.38 C767.82,710.42 768.91,709.15 767.8,708.19 C766.69,707.23 765.59,708.5 764.48,707.54 C763.37,706.58 764.46,705.31 763.35,704.35 C762.24,703.39 761.15,704.66 760.03,703.7 C758.92,702.74 760.01,701.47 758.9,700.51 C757.79,699.55 756.69,700.82 755.58,699.86 C754.47,698.9 755.56,697.63 754.45,696.68 C753.33,695.72 752.24,696.99 751.13,696.03 C750.02,695.07 751.11,693.8 749.99,692.84 C748.88,691.88 747.79,693.15 746.67,692.19 C745.56,691.23 746.65,689.96 745.54,689 C744.43,688.04 743.33,689.31 742.22,688.35 C741.11,687.39 742.2,686.12 741.09,685.17 C739.98,684.21 738.88,685.48 737.77,684.52 C736.66,683.56 737.75,682.29 736.64,681.34 C736.56,681.27 736.49,681.23 736.41,681.19 L733.47,684.6 L707.34,662.08 L717.37,650.44 L743.5,672.96 z" fill="#281A10"/>
      <path d="M337.52,340.47 C342.87,335.09 370.47,336.85 362.71,329.7 L329.32,298.91 C303.47,275.08 272.31,246.35 272.31,246.35 L267.89,248.21 L265.49,249.22 L250.17,235.1 L241.19,232.31 L236.97,236.89 L232.49,232.76 L237.02,227.85 L203.02,196.5 L193.16,192.56 L187.86,198.31 L141.55,155.61 L136.47,156.38 L136.13,161.48 L182.44,204.18 L176.2,210.94 L180.41,221.01 L214.41,252.36 L218.94,247.45 L223.42,251.58 L213.77,262.04 L216.67,292.36 L263.93,335.93 C264.76,341.1 264.68,348.22 260,353.8 C251.83,363.53 245.29,360.87 255.49,370.27 C255.97,370.71 256.44,371.15 256.9,371.58 C256.43,372.07 255.95,372.57 255.46,373.07 C241.41,387.36 226.75,388.16 226.94,394.06 C226.99,395.68 228.52,399.1 230.99,403.06 C230.32,403.53 229.68,404.07 229.11,404.69 C224.84,409.32 225.13,416.57 229.76,420.84 C234.39,425.11 241.64,424.82 245.91,420.19 C245.98,420.11 246.05,420.02 246.12,419.94 C250.88,423.28 255.84,424.82 260.11,422.49 C275.1,414.31 285.5,407.66 305.13,385.54 C325.31,362.79 327.73,350.32 337.53,340.47 z M197.65,233.14 L184.16,220.7 L186.27,218.41 L199.76,230.85 L197.65,233.14 z M201.86,228.58 L188.37,216.14 L190.48,213.85 L203.97,226.29 L201.86,228.58 z M206.07,224.02 L192.58,211.58 L194.69,209.29 L208.18,221.73 L206.07,224.02 z M210.28,219.46 L196.79,207.02 L198.9,204.73 L212.39,217.17 L210.28,219.46 z M214.49,214.9 L201,202.46 L203.11,200.17 L216.6,212.61 L214.49,214.9 z M264.06,309.23 L241.7,288.61 L244.24,285.86 L266.6,306.48 L264.06,309.23 z M269.11,303.75 L246.75,283.13 L249.29,280.38 L271.65,301 L269.11,303.75 z M274.16,298.27 L251.8,277.65 L254.34,274.9 L276.7,295.52 L274.16,298.27 z M279.21,292.79 L256.85,272.17 L259.39,269.42 L281.75,290.04 L279.21,292.79 z M284.26,287.31 L261.9,266.69 L264.44,263.94 L286.8,284.56 L284.26,287.31 z M310.42,306.34 L318.01,313.34 C318.3,315.2 318.47,317.07 318.55,318.92 L307.89,309.09 L310.43,306.34 z M305.37,311.82 L318.5,323.92 C318.4,325.47 318.23,327.01 317.99,328.54 L302.84,314.57 L305.38,311.82 z M300.32,317.3 L317.11,332.78 C316.77,334.12 316.36,335.45 315.9,336.76 L297.77,320.05 L300.31,317.3 z M295.27,322.78 L314.44,340.45 C313.91,341.64 313.33,342.8 312.7,343.94 L292.73,325.53 L295.27,322.78 z M287.68,331.01 L290.22,328.26 L310.75,347.19 C310.06,348.24 309.33,349.26 308.55,350.25 L287.69,331.01 z M242.14,416.74 C239.78,419.3 235.78,419.47 233.22,417.1 C230.66,414.74 230.5,410.74 232.86,408.18 C233.16,407.85 233.49,407.56 233.84,407.31 C236.23,410.59 239.09,413.93 242.14,416.73 L242.14,416.73 z M286.35,372.42 C282.79,369.13 282.56,363.58 285.85,360.02 C289.14,356.46 294.69,356.23 298.25,359.52 C301.81,362.8 302.04,368.36 298.75,371.92 C295.47,375.48 289.91,375.71 286.35,372.42 z" fill="#281A10"/>
      <g>
        <path d="M454.36,766.45 C456.72,767.09 459.24,765.44 459.96,762.77 L460.16,762.03 L461.09,758.6 L461.29,757.86 C462.02,755.2 460.68,752.49 458.32,751.85 C455.96,751.21 453.44,752.86 452.72,755.53 L452.52,756.27 L451.59,759.7 L451.39,760.44 C450.66,763.1 452,765.81 454.35,766.45 z" fill="#281A10"/>
        <path d="M360.55,801.56 L356.75,815.51 C356.45,816.62 357.1,817.77 358.22,818.08 L362.33,819.2 L360.96,824.24 L365,825.34 L359.66,844.94 C358.65,845.04 357.76,845.74 357.48,846.77 L357.4,847.05 C357.04,848.38 357.83,849.77 359.16,850.13 L450.5,875.01 C451.83,875.37 453.22,874.58 453.58,873.25 L453.66,872.97 C453.94,871.94 453.53,870.88 452.71,870.29 L458.05,850.69 L462.1,851.79 L463.47,846.75 L467.58,847.87 C468.69,848.17 469.84,847.52 470.15,846.4 L473.95,832.45 C477.22,820.43 476.49,808.26 472.59,797.34 L488.34,739.52 C489.35,739.42 490.24,738.72 490.52,737.69 L490.6,737.41 C490.96,736.08 490.17,734.69 488.84,734.33 L397.5,709.45 C396.17,709.09 394.78,709.88 394.42,711.21 L394.34,711.49 C394.06,712.52 394.47,713.58 395.29,714.17 L379.54,772 C370.64,779.44 363.83,789.56 360.56,801.57 z M368.84,811.22 L364.8,810.12 L363.43,815.16 L361.34,814.59 L364.59,802.66 C367.01,793.77 371.52,785.99 377.43,779.7 L368.84,811.21 z M470.48,805.05 C472.39,813.47 472.33,822.45 469.9,831.35 L466.65,843.28 L464.56,842.71 L465.93,837.67 L461.89,836.57 L470.48,805.05 z M398.73,717.44 L483.71,740.59 L469.95,791.1 C462.76,776.5 449.6,764.91 432.7,760.31 C415.8,755.71 398.58,759.01 384.98,767.95 L398.74,717.44 z M431.6,764.34 C449.03,769.09 462.18,781.82 468.2,797.52 L461.63,821.63 C460.35,820.71 459.69,819.05 460.13,817.44 C460.69,815.37 459.48,813.22 457.42,812.66 C455.37,812.1 453.09,813.82 452.37,816.49 L452,817.83 C451.27,820.5 449.21,822.27 447.41,821.78 C445.61,821.29 444.73,818.71 445.45,816.05 L451.09,795.34 C451.82,792.68 450.48,789.97 448.13,789.33 C445.77,788.69 443.25,790.34 442.53,793.01 L437.12,812.88 C436.39,815.55 434.08,817.26 431.98,816.68 C429.88,816.11 428.76,813.46 429.48,810.8 L431.61,802.97 C432.34,800.31 430.82,797.55 428.25,796.85 C425.68,796.15 422.98,797.75 422.25,800.42 L421.55,802.97 C420.82,805.64 418.05,807.22 415.39,806.49 L407.1,804.23 C404.44,803.5 402.74,801.14 403.33,798.98 C403.92,796.82 402.58,794.55 400.36,793.94 C398.14,793.33 395.72,795.02 395,797.68 L393.94,801.58 C393.21,804.24 390.44,805.83 387.78,805.1 L383.47,803.93 C380.81,803.2 379.2,800.52 379.89,797.97 C380.41,796.07 379.67,794.1 378.18,792.93 L383.23,774.38 C396.38,763.91 414.17,759.61 431.6,764.35 z" fill="#281A10"/>
      </g>
      <path d="M502.24,293.92 L499.37,229.21 L498.95,219.83 L500.55,209.4 C497.44,210.13 494.01,210.63 490.4,210.89 L489,179.21 C488.92,177.44 490.3,175.32 491.95,174.67 L559.1,148.32 C562.31,147.06 564.7,143.38 564.55,139.94 L563.37,113.37 C563.21,109.68 560.07,106.8 556.37,106.97 L550.46,107.23 L549.82,92.87 L546.44,93.02 L546.41,92.44 C546.29,89.84 544.07,87.8 541.47,87.92 L424.69,93.1 C422.09,93.22 420.06,95.44 420.17,98.04 L420.19,98.62 L416.78,98.77 L418.23,131.42 L421.64,131.27 L421.67,131.85 C421.79,134.45 424.01,136.48 426.61,136.37 L543.39,131.19 C545.99,131.07 548.02,128.85 547.91,126.25 L547.88,125.67 L551.26,125.52 L550.62,111.16 L556.53,110.9 C558.05,110.83 559.34,112.02 559.41,113.54 L560.59,140.11 C560.67,141.88 559.29,144 557.64,144.64 L490.49,170.99 C487.28,172.25 484.89,175.93 485.04,179.37 L486.44,211.05 C482.82,211.11 479.35,210.91 476.19,210.47 L478.7,220.72 L480.01,250.32 L481.98,294.8 C482.1,297.4 484.32,299.43 486.92,299.32 L497.69,298.84 C500.29,298.73 502.32,296.5 502.21,293.9 z M488.85,288.82 C488.78,287.15 490.07,285.74 491.74,285.66 C493.41,285.59 494.82,286.88 494.9,288.55 C494.97,290.22 493.68,291.63 492.01,291.71 C490.34,291.78 488.93,290.49 488.86,288.82 z" fill="#281A10"/>
      <path d="M676.11,154.36 C655.16,185.45 645.02,216.22 645.02,216.22 C645.02,216.22 635.51,225.86 647.46,233.91 C657.62,240.76 654.63,248.18 645.12,257.1 C635.61,266.02 611.38,286.62 626.82,297.02 C642.25,307.42 652.26,277.24 656.96,265.07 C661.66,252.91 667.42,247.35 677.58,254.2 C690.31,262.78 694.9,249.82 694.9,249.82 C694.9,249.82 719.62,228.88 740.57,197.79 L676.11,154.35 z M630.91,291.11 C628.84,289.72 628.29,286.91 629.69,284.84 C631.08,282.77 633.89,282.22 635.96,283.62 C638.03,285.01 638.58,287.82 637.18,289.89 C635.78,291.96 632.98,292.51 630.91,291.11 z" fill="#281A10"/>
      <path d="M564.57,181.94 L598.24,189.34 L597.06,194.71 L592.44,215.74 L588.44,214.86 L586.24,224.88 L585.94,224.81 C578.84,223.25 582.6,239.29 578.79,256.59 C576.69,266.15 572.65,274.39 570.66,280.12 L591.29,284.66 C591.88,278.63 591.67,269.46 593.78,259.89 C597.58,242.58 607.72,229.6 600.62,228.04 L600.32,227.97 L602.52,217.95 L598.52,217.07 L603.14,196.04 L604.32,190.67 L637.98,198.07 C643.37,199.26 647.37,195.73 646.86,190.23 L643.39,152.65 L643.33,152.65 C643.29,151.85 643.25,151.06 643.17,150.25 L637.98,94.01 C637,83.43 632.24,77.14 626.38,75.83 C620.54,74.53 613.6,78.17 608.22,87.47 L579.92,136.35 C579.51,137.05 579.14,137.75 578.78,138.45 L578.72,138.45 C578.72,138.45 559.81,171.1 559.81,171.1 C557.04,175.88 559.19,180.76 564.58,181.94 z" fill="#281A10"/>
      <path d="M314.99,615.81 L283.72,584.86 L286,583.3 L266.57,564.07 L208.05,604.04 C196.74,611.77 187.47,597.46 177.77,586.23 C168.07,575 155.31,569.28 145.72,578.97 C136.13,588.66 147.95,600.39 162.41,605.43 C176.87,610.47 186.56,618.72 178.09,624.5 L145.97,646.44 L116.66,666.46 L127.51,691.56 L129.79,690 L147.24,730.38 L154.38,725.5 L151.71,721.6 L157.89,717.38 L160.56,721.28 L166.67,717.11 L164,713.21 L170.18,708.99 L172.85,712.89 L178.96,708.72 L176.29,704.82 L182.47,700.6 L185.14,704.5 L191.25,700.33 L188.58,696.43 L194.76,692.21 L197.43,696.11 L203.54,691.94 L200.87,688.04 L207.05,683.82 L209.72,687.72 L215.83,683.55 L213.16,679.65 L219.34,675.43 L222.01,679.33 L228.12,675.16 L225.45,671.26 L231.63,667.04 L234.3,670.94 L240.41,666.77 L237.74,662.87 L243.92,658.65 L246.59,662.55 L252.7,658.38 L250.03,654.48 L256.21,650.26 L258.88,654.16 L264.99,649.99 L262.32,646.09 L268.5,641.87 L271.17,645.77 L277.28,641.6 L274.61,637.7 L277.75,635.55 L280.79,633.48 L282.86,636.52 L283.45,637.39 L284.32,636.8 L289.56,633.22 L286.89,629.32 L293.07,625.1 L295.74,629 L301.85,624.83 L299.18,620.93 L305.36,616.71 L308.03,620.61 L315.03,615.83 z M165.15,597.53 C156.58,593.53 148.44,588.59 152.87,584.61 C157.81,580.17 166.15,588.12 171.99,594.62 C175.44,598.46 182.04,605.74 186.56,609.46 C186.56,609.46 170.9,600.2 165.15,597.52 z" fill="#281A10"/>
      <path d="M307.53,539.21 L307.09,530.74 C306.85,526.13 302.92,522.58 298.3,522.82 L124.21,531.83 C113.5,532.38 92.36,513.76 80.2,514.13 C68.04,514.5 45.95,543.35 43.32,548.37 C40.69,553.39 42.96,555.9 42.96,555.9 L78.94,541.82 L87.25,562.73 L87.2,562.61 L60.85,572.33 C66.91,581.27 95.05,584.37 95.88,584.46 L101.19,597.83 C125.39,582.94 116.66,557.48 128.01,556.89 L299.6,548.01 C304.21,547.77 307.76,543.84 307.52,539.22 z M299.24,535.39 C299.37,537.99 297.38,540.21 294.77,540.35 C292.17,540.48 289.95,538.48 289.82,535.88 C289.69,533.28 291.69,531.06 294.29,530.92 C296.89,530.79 299.11,532.79 299.24,535.39 z M86.63,539.85 L91.08,538.15 L100.83,563.72 L96.38,565.42 L86.63,539.85 z M114.17,558.64 L109.72,560.34 L99.97,534.77 L104.42,533.07 L114.17,558.65 z" fill="#281A10"/>
      <path d="M164.5,741.36 C157.27,753.48 162.34,765.4 162.34,765.4 L171.81,749.52 C171.81,749.52 175.22,749.22 181.51,752.97 C187.8,756.72 189.16,759.86 189.16,759.86 L179.69,775.74 C179.69,775.74 192.58,774.54 199.81,762.41 C202.65,757.65 202.3,753.47 200.6,749.99 C200.6,749.99 200.6,749.99 200.6,749.99 C200.6,749.99 199.2,745.55 203.17,742.58 C205.27,741 278.59,686.12 295.93,673.14 C300.87,675.17 306.71,674.64 311.29,671.21 C318.22,666.02 319.64,656.19 314.45,649.25 C309.26,642.32 299.43,640.9 292.49,646.09 C287.91,649.52 285.75,654.98 286.31,660.29 C268.77,673.42 193.72,729.6 189.95,732.42 C184.93,736.18 182.72,735.45 180.47,735.4 C180.47,735.4 180.47,735.4 180.47,735.4 C175.05,733.99 168.69,734.34 164.5,741.35 z M198.87,735.78 C197.6,734.08 197.94,731.67 199.64,730.4 L280.07,670.19 C281.77,668.92 284.18,669.26 285.45,670.96 C286.72,672.66 286.37,675.07 284.68,676.34 L204.25,736.55 C202.55,737.82 200.14,737.48 198.87,735.78 z M291.52,656.39 C292.14,656.06 292.38,655.28 292.06,654.65 C291.74,654.03 292.04,653.41 292.73,653.29 C293.42,653.17 293.89,652.5 293.78,651.8 C293.66,651.11 294.14,650.62 294.84,650.71 C295.54,650.8 296.19,650.32 296.3,649.62 C296.41,648.93 297.01,648.61 297.64,648.91 C298.27,649.21 299.05,648.95 299.36,648.32 C299.67,647.69 300.35,647.57 300.85,648.06 C301.36,648.55 302.17,648.53 302.67,648.03 C303.16,647.53 303.84,647.63 304.17,648.24 C304.5,648.86 305.28,649.1 305.91,648.78 C306.53,648.46 307.14,648.76 307.27,649.45 C307.39,650.14 308.06,650.61 308.76,650.5 C309.45,650.38 309.94,650.86 309.85,651.55 C309.75,652.25 310.24,652.9 310.94,653.01 C311.63,653.11 311.95,653.72 311.65,654.35 C311.34,654.98 311.61,655.76 312.24,656.07 C312.87,656.38 312.98,657.06 312.5,657.56 C312.01,658.07 312.03,658.88 312.53,659.38 C313.03,659.87 312.93,660.55 312.31,660.88 C311.69,661.21 311.45,661.99 311.77,662.62 C312.09,663.24 311.79,663.85 311.1,663.98 C310.41,664.1 309.94,664.77 310.05,665.47 C310.17,666.16 309.69,666.65 309,666.56 C308.3,666.47 307.65,666.95 307.54,667.65 C307.43,668.35 306.83,668.66 306.2,668.36 C305.57,668.05 304.79,668.32 304.48,668.95 C304.17,669.58 303.49,669.7 302.99,669.21 C302.48,668.73 301.67,668.74 301.17,669.24 C300.68,669.74 300,669.64 299.67,669.02 C299.34,668.4 298.56,668.16 297.93,668.48 C297.31,668.8 296.7,668.5 296.57,667.81 C296.45,667.12 295.78,666.65 295.08,666.76 C294.39,666.88 293.9,666.4 293.99,665.7 C294.08,665.01 293.6,664.35 292.9,664.25 C292.21,664.15 291.89,663.54 292.19,662.91 C292.5,662.28 292.23,661.5 291.6,661.19 C290.97,660.88 290.86,660.2 291.34,659.7 C291.83,659.19 291.81,658.37 291.31,657.88 C290.81,657.39 290.91,656.71 291.52,656.38 z" fill="#281A10"/>
      <path d="M601.39,379.81 L683.68,297.8 L701.82,279.73 L704.82,276.74 L733.13,248.52 L736.13,245.53 L839.51,142.5 L844.32,137.7 L871.64,165.12 L866.83,169.91 L738.42,297.88 L628.71,407.21 L625.75,410.16 L623.9,412.01 L596.58,384.59 L598.43,382.74 L601.39,379.79 z M719.81,263.94 C717.15,266.59 715.91,269.67 717.05,270.81 C718.19,271.95 721.27,270.72 723.93,268.07 C726.59,265.42 727.83,262.34 726.69,261.2 C725.55,260.06 722.47,261.29 719.81,263.94 z M739.39,254.81 L711.08,283.03 L711.4,283.35 C713.05,285 715.73,285.01 717.38,283.35 L739.7,261.11 C741.36,259.46 741.36,256.78 739.71,255.13 L739.39,254.81 z M826.5,192.3 C827.64,191.16 826.41,188.08 823.76,185.42 C821.11,182.76 818.03,181.52 816.89,182.66 C815.75,183.8 816.98,186.88 819.63,189.54 C822.28,192.2 825.36,193.44 826.5,192.3 z M818.49,176.44 L832.73,190.73 C833.82,186.84 832.85,182.49 829.8,179.42 C826.74,176.35 822.39,175.36 818.5,176.45 z M824.7,198.73 L810.46,184.44 L810.46,184.44 C809.36,188.33 810.34,192.68 813.4,195.75 C816.46,198.82 820.81,199.8 824.7,198.72 z" fill="#281A10"/>
      <path d="M915.35,534.31 L945.27,532.48 L941.57,471.85 L939.74,441.93 L909.82,443.76 L731.77,454.64 L733.6,484.56 L911.65,473.68 L911.65,473.68 C911.65,473.68 911.65,473.68 911.65,473.68 L915.35,534.31 z M920.46,445.97 L923.9,445.76 L924.22,450.98 L920.78,451.19 L920.46,445.97 z M738.58,457.08 L742.02,456.87 L742.34,462.09 L738.9,462.3 L738.58,457.08 z M745.68,473.86 C742.92,474.03 740.55,471.93 740.38,469.17 C740.21,466.42 742.31,464.04 745.07,463.87 C747.83,463.7 750.2,465.8 750.37,468.56 C750.54,471.32 748.44,473.69 745.68,473.86 z M755.33,461.3 L751.89,461.51 L751.57,456.29 L755.01,456.08 L755.33,461.3 z M768.32,460.51 L764.88,460.72 L764.56,455.5 L768,455.29 L768.32,460.51 z M781.31,459.72 L777.87,459.93 L777.55,454.71 L780.99,454.5 L781.31,459.72 z M794.3,458.93 L790.86,459.14 L790.54,453.92 L793.98,453.71 L794.3,458.93 z M807.29,458.14 L803.85,458.35 L803.53,453.13 L806.97,452.92 L807.29,458.14 z M820.28,457.35 L816.84,457.56 L816.52,452.34 L819.96,452.13 L820.28,457.35 z M833.27,456.56 L829.83,456.77 L829.51,451.55 L832.95,451.34 L833.27,456.56 z M846.26,455.77 L842.82,455.98 L842.5,450.76 L845.94,450.55 L846.26,455.77 z M859.25,454.98 L855.81,455.19 L855.49,449.97 L858.93,449.76 L859.25,454.98 z M872.24,454.19 L868.8,454.4 L868.48,449.18 L871.92,448.97 L872.24,454.19 z M885.23,453.4 L881.79,453.61 L881.47,448.39 L884.91,448.18 L885.23,453.4 z M898.22,452.61 L894.78,452.82 L894.46,447.6 L897.9,447.39 L898.22,452.61 z M907.77,452.03 L907.45,446.81 L910.89,446.6 L911.21,451.82 L907.77,452.03 z M919.21,479.96 C917.26,480.08 915.59,478.6 915.47,476.65 C915.35,474.7 916.84,473.03 918.78,472.91 C920.73,472.79 922.4,474.27 922.52,476.22 C922.64,478.17 921.16,479.84 919.21,479.96 z M934.83,479.01 C932.88,479.13 931.21,477.65 931.09,475.7 C930.97,473.75 932.45,472.08 934.4,471.96 C936.35,471.84 938.02,473.32 938.14,475.27 C938.26,477.22 936.77,478.89 934.83,479.01 z M933.86,463.1 C931.91,463.22 930.24,461.74 930.12,459.79 C930,457.84 931.48,456.17 933.43,456.05 C935.38,455.93 937.05,457.41 937.17,459.36 C937.29,461.31 935.8,462.98 933.86,463.1 z" fill="#281A10"/>
      <path d="M769.97,426.43 C794.92,429.58 834.29,430.32 845.49,430.64 C860.15,431.06 863.06,412.39 847.52,407.71 C841.8,405.99 835.14,403.82 828.28,401.72 L837.59,397.77 L848.1,393.32 L853.94,390.85 L892.03,374.71 C897.19,372.52 899.61,366.56 897.42,361.4 C895.23,356.24 889.27,353.83 884.11,356.02 L844.72,372.71 L843.26,369.84 L892.27,349.07 C897.43,346.88 899.85,340.92 897.66,335.76 C895.47,330.6 889.51,328.19 884.35,330.37 L834.04,351.69 L833.31,350.25 L832.58,348.82 L876.76,330.1 C881.92,327.91 884.34,321.95 882.15,316.79 C879.96,311.63 874,309.22 868.84,311.4 L823.36,330.67 L821.9,327.8 L851.87,315.1 C857.03,312.91 859.44,306.95 857.26,301.79 C855.07,296.63 849.11,294.22 843.95,296.4 L812.68,309.65 L804.71,313.03 L789.51,319.47 L703.18,356.05 L692.85,360.43 L728.3,444.09 L738.63,439.71 L769.99,426.42 z" fill="#281A10"/>
      <path d="M492.46,789.55 C492.46,789.55 493.2,794.38 494.19,800.79 C495.69,810.56 497.76,824.01 498.64,829.76 C498.74,830.43 498.8,831.06 498.83,831.67 C499.29,839.8 494.22,843.18 494.22,843.18 C494.22,843.18 495.49,849.93 497.76,859.23 C491.86,864.68 487.31,871.49 484.56,879.07 L488.47,880.54 C485.95,887.53 485.09,895.23 486.29,903.09 C490.14,928.18 513.61,945.4 538.7,941.54 C563.62,937.71 580.76,914.54 577.22,889.64 L581.36,888.95 C581.34,888.8 581.32,888.64 581.3,888.49 C579.49,876.69 573.67,866.48 565.46,859.02 C571.35,859.01 577.43,858.56 583.62,857.61 C591.09,856.46 598.2,854.67 604.83,852.37 L605.13,854.31 L610.73,853.45 L608.39,838.24 L602.79,839.1 L603.09,841.04 C596.07,840.83 588.75,841.26 581.28,842.41 C573.55,843.6 566.2,845.47 559.37,847.9 L559.05,845.83 L553.84,846.63 C553.28,839.2 552.68,834.2 552.68,834.2 C552.68,834.2 546.82,832.5 544.82,824.6 C544.67,824.01 544.53,823.38 544.43,822.72 C543.55,816.97 541.48,803.51 539.98,793.75 C539,787.34 538.25,782.51 538.25,782.51 C538.25,782.51 537.87,780.64 537.2,777.62 C534.35,764.91 526.15,731.84 518.37,733.04 C514.79,733.59 512.03,734.01 509.96,734.33 C509.96,734.33 508.47,734.56 504.98,735.1 C502.91,735.42 500.15,735.84 496.57,736.39 C488.79,737.59 490.9,771.58 491.99,784.57 C492.25,787.65 492.45,789.55 492.45,789.55 z M521.66,897.99 C518.06,898.54 514.69,896.07 514.13,892.47 C513.58,888.87 516.05,885.5 519.65,884.94 C523.25,884.39 526.62,886.86 527.18,890.46 C527.73,894.06 525.25,897.43 521.66,897.99 z M547,875.93 L533.45,878.01 L532.17,869.71 L545.71,867.63 L546.99,875.93 z M525.71,879.2 L512.16,881.28 L510.88,872.98 L524.43,870.9 L525.71,879.2 z M545.21,864.25 L531.67,866.33 L530.39,858.03 L543.93,855.95 L545.21,864.25 z M522.64,859.22 L523.92,867.52 L510.38,869.6 L509.1,861.3 L522.64,859.22 z M535.62,921.51 C521.63,923.66 508.49,914.02 506.34,900.03 C505.79,896.45 506.02,892.92 506.89,889.62 C508.01,892.55 509.19,895.37 510.42,897.97 C517.57,913.07 523.39,911.9 534.43,910.21 C544.93,908.6 550.77,907.93 553.29,893.63 L557.19,892.98 C558.89,906.69 549.36,919.39 535.61,921.5 z M508.66,776.52 L503.67,744.06 L507.07,743.54 L512.06,776 L508.66,776.52 z M515.43,775.48 L510.44,743.02 L513.84,742.5 L518.83,774.96 L515.43,775.48 z M522.2,774.44 L517.21,741.98 L520.61,741.46 L525.6,773.92 L522.2,774.44 z" fill="#281A10"/>
      <path d="M827.07,697.42 L885.46,644.22 L885.46,644.22 C885.46,644.22 896.21,627.07 896.21,627.07 L893.52,624.12 L895.52,622.3 L897.48,624.45 L913.78,609.6 L922.51,590.33 L919.29,586.8 L918.74,586.2 L923.47,578.18 L921.17,575.66 L912.75,579.62 L912.64,579.5 L909.55,576.11 L888.99,582.39 L872.69,597.24 L874.65,599.39 L872.65,601.21 L870.07,598.38 L851.9,607.38 L851.89,607.38 C851.89,607.38 845.4,613.28 845.4,613.28 C843.82,612.03 840.92,610.73 836.81,612.57 C836.75,612.6 836.69,612.62 836.63,612.64 C834.18,611.3 831.37,609.2 829.82,606.16 C826.81,600.26 824.1,604.8 814.94,610.18 C809.5,607.44 804.09,603.41 799.24,598.51 C787.46,586.61 790.67,582.22 791.86,573.41 C792.76,566.69 792.93,564.57 786.11,560.4 C783.98,559.1 781.18,557.6 777.5,555.7 C775.69,554.76 773.75,553.79 771.75,552.8 C759.05,546.54 743.89,539.84 743.89,539.84 L711.81,578.32 C711.81,578.32 722.23,591.77 730.6,602.16 C732.39,604.39 734.09,606.47 735.58,608.26 C737.69,610.8 739.44,612.88 740.98,614.54 C746.28,620.27 748.95,620.85 754.52,617.14 C754.88,616.9 755.23,616.7 755.58,616.51 C757.72,615.36 759.58,615.28 761.46,615.98 C765.28,617.4 769.16,622.04 775.7,627.52 C785.86,636.01 808.3,641.62 802.87,652.03 L793.51,660.56 C783.34,669.83 782.6,685.59 791.87,695.77 C801.14,705.94 816.9,706.68 827.08,697.41 z M876.39,597.91 L889.22,586.22 L891.54,588.76 L878.71,600.45 L876.39,597.91 z M881,602.97 L893.83,591.28 L896.15,593.82 L883.32,605.51 L881,602.97 z M885.61,608.03 L898.44,596.34 L900.76,598.88 L887.93,610.57 L885.61,608.03 z M890.22,613.09 L903.05,601.4 L905.37,603.94 L892.54,615.63 L890.22,613.09 z M894.83,618.15 L907.66,606.46 L909.98,609 L897.15,620.69 L894.83,618.15 z M839.26,631.7 C837.84,630.14 837.95,627.71 839.51,626.29 L848.9,617.74 C850.46,616.31 852.89,616.43 854.31,617.99 C855.73,619.56 855.62,621.98 854.06,623.4 L844.67,631.95 C843.11,633.37 840.68,633.26 839.26,631.7 z M748.54,601.75 L727.54,584.24 L737.86,571.86 L758.86,589.37 L748.54,601.75 z M803.27,666.74 L805.81,664.42 L824.35,684.77 L821.81,687.09 L803.27,666.74 z M800.75,669.04 L819.29,689.39 L816.75,691.71 L798.21,671.35 L800.75,669.03 z M793.14,675.97 L795.68,673.65 L814.23,694.01 L811.69,696.33 L793.15,675.98 z" fill="#281A10"/>
      <path d="M409.91,304.53 C427,289 438.08,269.04 440.98,247.58 C441.58,243.36 441.85,239.09 441.8,234.8 C441.8,234.8 441.8,234.8 441.8,234.8 C441.8,234.68 441.8,234.56 441.8,234.44 C441.8,233.94 441.79,233.44 441.77,232.94 C441.68,230.05 441.45,227.16 441.06,224.27 C442.03,223.47 442.99,222.66 443.96,221.86 C442.98,215.66 441.33,209.52 439.03,203.54 C437.36,199.19 435.33,194.93 432.95,190.8 C433.85,189.98 434.66,189.25 435.35,188.62 C431.5,182.08 426.81,175.87 421.3,170.19 C415.78,164.51 409.72,159.63 403.3,155.6 C402.64,156.28 401.89,157.06 401.04,157.94 C396.98,155.44 392.78,153.29 388.49,151.49 C382.58,149.01 376.49,147.18 370.33,146.01 C369.5,146.95 368.67,147.89 367.83,148.84 C364.96,148.37 362.07,148.05 359.18,147.87 C358.62,147.83 358.06,147.81 357.5,147.79 C357.43,147.79 357.35,147.79 357.28,147.79 L357.28,147.79 C353.01,147.62 348.74,147.76 344.52,148.23 C322.99,150.5 302.71,160.97 286.68,177.6 C284.76,176.12 283.03,174.82 281.57,173.75 C279.87,175.57 278.22,177.47 276.61,179.42 C275.44,180.85 274.28,182.3 273.16,183.8 C271.9,185.48 270.65,187.15 269.39,188.83 C272.12,190.87 274.82,192.95 277.51,195.04 C286.11,217.25 302.4,241.13 324.15,263.53 C345.95,285.88 369.38,302.82 391.35,312.02 C393.65,315.16 395.92,318.32 398.16,321.5 C399.87,320.29 401.59,319.09 403.3,317.88 C404.83,316.8 406.31,315.69 407.78,314.56 C409.78,313.01 411.72,311.42 413.6,309.77 C412.58,308.28 411.32,306.52 409.9,304.55 z M330.86,190.08 C341.42,176.52 352.32,162.53 359.44,152.07 C361.14,152.18 362.84,152.36 364.52,152.58 C351.94,166.83 339.35,181.08 326.77,195.33 C328.12,193.6 329.48,191.85 330.86,190.08 z M349.26,211.14 C363.01,193.14 376.61,174.91 389.89,156.67 C392.7,157.97 395.42,159.44 398.06,161.02 C385.07,174.48 360.37,200.08 354.72,205.93 C352.95,207.76 351.16,209.58 349.25,211.14 z M375.45,244.88 C377.35,241.45 380.47,238.52 383.6,235.67 C389.62,230.2 415.94,206.27 429.78,193.69 C431.3,196.4 432.69,199.19 433.92,202.06 C414.37,216.07 394.79,230.42 375.45,244.88 z M397.7,260.33 C410.87,249.38 424.05,238.42 437.22,227.47 C437.39,229.15 437.52,230.84 437.58,232.53 C428.75,238.24 411.38,250.53 397.7,260.33 z" fill="#281A10"/>
      <path d="M383.65,687.19 C380.57,687.44 376.78,690.78 374.19,689.21 C370.84,687.17 368.72,680.92 359.51,674.53 C350.3,668.13 347.3,669.88 344.14,667.11 C342.08,665.3 342.87,661.84 342.86,659.1 C342.86,657.37 342.52,655.92 340.95,655.34 C336.34,653.64 309.65,681.25 303.64,694.79 C303.16,695.88 302.81,696.94 302.58,697.99 L276.43,726.74 L161.13,853.49 L170.93,867.05 L174.36,871.8 L178.99,872.76 L179.7,868.29 L184.33,869.25 L185.03,864.78 L189.66,865.74 L190.36,861.27 L194.98,862.23 L195.68,857.76 L200.31,858.72 L201.01,854.25 L205.64,855.21 L206.34,850.75 L210.97,851.71 L211.67,847.24 L216.3,848.2 L217,843.73 L221.63,844.69 L222.33,840.23 L226.95,841.19 L227.65,836.73 L232.28,837.69 L232.98,833.23 L237.61,834.19 L238.31,829.73 L242.93,830.69 L243.63,826.23 L248.26,827.19 L248.96,822.73 L253.58,823.69 L254.28,819.23 L258.91,820.19 L259.61,815.73 L264.24,816.69 L264.94,812.22 L269.57,813.18 L270.27,808.71 L274.89,809.67 L275.59,805.21 L280.21,806.17 L280.91,801.7 L283.81,802.3 L285.53,802.66 L286.23,798.2 L290.85,799.16 L291.55,794.7 L296.17,795.66 L296.87,791.2 L301.49,792.16 L302.19,787.7 L306.81,788.66 L307.51,784.2 L312.13,785.16 L312.83,780.7 L317.45,781.66 L318.15,777.2 L322.78,778.16 L323.48,773.7 L328.1,774.66 L328.8,770.2 L333.42,771.16 L334.12,766.7 L338.75,767.66 L339.45,763.2 L344.07,764.16 L344.77,759.7 L349.39,760.66 L350.09,756.2 L354.72,757.16 L356.45,745.02 L357.9,734.85 C359.71,733.79 361.52,732.41 363.34,730.67 C378.77,715.94 389.33,690.97 386.09,687.99 C385.35,687.31 384.5,687.11 383.59,687.19 z M189.93,847.89 C188.7,849.24 186.49,849.24 185,847.87 C183.51,846.51 183.29,844.31 184.52,842.96 C185.75,841.61 187.96,841.62 189.45,842.98 C190.94,844.34 191.16,846.54 189.93,847.89 z M325.65,721.45 C323.87,720.17 323.34,717.8 324.45,716.16 C325.57,714.52 327.92,714.22 329.7,715.5 C331.48,716.78 332.01,719.15 330.89,720.8 C329.77,722.44 327.42,722.74 325.64,721.46 z M312.66,704.14 C313.78,702.5 316.13,702.2 317.91,703.48 C319.69,704.76 320.22,707.13 319.11,708.78 C317.99,710.42 315.64,710.72 313.86,709.44 C312.08,708.16 311.54,705.79 312.66,704.14 z M340.13,723.9 C341.25,722.25 343.6,721.96 345.38,723.24 C347.16,724.52 347.69,726.89 346.57,728.53 C345.45,730.18 343.1,730.47 341.32,729.19 C339.54,727.91 339.01,725.54 340.13,723.9 z M321.98,680.42 C333.27,664.71 335.35,681.26 347,691.19 C358.66,701.13 376.45,697.56 368.54,711.33 C362.33,722.15 349.28,718.68 335.96,709.12 C329.27,704.32 313.79,691.79 321.98,680.41 z" fill="#281A10"/>
      <path d="M651.8,887.77 L657.86,884.92 L662.06,882.95 L667.19,880.54 L670.6,878.94 L677.45,875.72 L681.17,873.97 L687.71,870.9 L692.84,868.49 L690.46,863.42 L672.3,824.75 L669.37,818.51 L669.34,818.45 L661.52,801.79 L658.56,795.49 L654.94,787.79 C654.94,787.79 632.22,790.62 622.51,772.75 C620.58,769.21 618.91,765.53 617.42,761.83 C611.41,746.89 608.48,731.64 604.66,723.5 C601.45,716.67 588.18,713.14 585.94,714.19 C583.69,715.24 577.94,727.71 581.15,734.54 C585.92,744.7 600.1,760.84 607.66,779.72 C608.35,781.43 608.83,783.12 609.14,784.77 C612.31,801.32 598.52,814.28 598.52,814.28 L602.14,821.98 L605.1,828.28 L612.92,844.94 L612.95,845 L615.88,851.24 L634.04,889.91 L636.42,894.98 L641.55,892.57 L644.88,891.01 L651.81,887.75 z M591.04,725.11 C593.89,723.77 597.28,725 598.61,727.84 C599.95,730.68 598.72,734.08 595.88,735.41 C593.04,736.74 589.64,735.52 588.31,732.68 C586.97,729.83 588.2,726.44 591.04,725.11 z M649.42,882.71 L631.26,844.04 L637.32,841.19 L655.48,879.86 L649.42,882.71 z M659.68,877.89 L641.52,839.22 L646.65,836.81 L664.81,875.48 L659.68,877.89 z M668.22,873.88 L650.06,835.21 L656.91,831.99 L675.07,870.66 L668.22,873.88 z M685.32,865.85 L678.78,868.92 L660.62,830.25 L667.16,827.18 L685.32,865.85 z M639.16,887.53 L621,848.86 L624.33,847.3 L642.49,885.97 L639.16,887.53 z" fill="#281A10"/>
      <path d="M652.05,698.18 L717.32,774.29 C715.75,775.49 714.32,777.3 713.18,779.9 C711.98,782.63 709.38,788.22 706.64,794.03 C693.07,792.12 693.88,795.55 695.85,801.26 C697.84,807.06 691.92,812.86 690.93,814.19 C690.22,815.15 693.63,817.4 695.6,818.59 C692.58,829.57 694.88,841.82 702.83,851.09 C715.55,865.92 737.97,867.64 752.8,854.92 L770.17,840.02 C775.43,835.51 776.04,827.59 771.53,822.33 L732.83,777.21 C730.25,774.21 725.81,771.87 721.56,772.49 L655.38,695.32 L660.53,690.9 L657.53,687.41 L651.6,692.49 L649.03,694.69 L652.02,698.18 z M747.45,812.83 C751.93,818.05 753.69,824.69 752.88,831.01 C752.17,836.53 749.49,841.83 744.93,845.74 C735.14,854.13 720.41,853 712.02,843.22 C708.11,838.66 706.27,833.02 706.41,827.45 C706.57,821.07 709.32,814.79 714.55,810.31 C724.33,801.92 739.07,803.05 747.46,812.83 z" fill="#281A10"/>
      <g>
        <path d="M749.9,500 C749.9,638.016 638.016,749.9 500,749.9 C361.984,749.9 250.1,638.016 250.1,500 C250.1,361.984 361.984,250.1 500,250.1 C638.016,250.1 749.9,361.984 749.9,500 z" fill="#281A10"/>
        <path d="M500,734.11 C437.47,734.11 378.68,709.76 334.46,665.54 C290.24,621.32 265.89,562.53 265.89,500 C265.89,437.47 290.24,378.68 334.46,334.46 C378.68,290.24 437.47,265.89 500,265.89 C562.53,265.89 621.32,290.24 665.54,334.46 C709.76,378.68 734.11,437.47 734.11,500 C734.11,562.53 709.76,621.32 665.54,665.54 C621.32,709.76 562.53,734.11 500,734.11 z" fill="#000000"/>
        <path d="M500,718.31 C441.69,718.31 386.86,695.6 345.63,654.37 C304.4,613.14 281.69,558.31 281.69,500 C281.69,441.69 304.4,386.86 345.63,345.63 C386.86,304.4 441.69,281.69 500,281.69 C558.31,281.69 613.14,304.4 654.37,345.63 C695.6,386.86 718.31,441.69 718.31,500 C718.31,558.31 695.6,613.14 654.37,654.37 C613.14,695.6 558.31,718.31 500,718.31 z" fill="#C1BAAA"/>
        <path d="M500,702.52 C445.91,702.52 395.05,681.45 356.8,643.2 C318.55,604.95 297.48,554.09 297.48,500 C297.48,445.91 318.55,395.05 356.8,356.8 C395.05,318.55 445.91,297.48 500,297.48 C554.09,297.48 604.95,318.55 643.2,356.8 C681.45,395.05 702.52,445.91 702.52,500 C702.52,554.09 681.45,604.95 643.2,643.2 C604.95,681.45 554.09,702.52 500,702.52 z" fill="#F6F3E9"/>
        <path d="M500,686.73 C450.12,686.73 403.23,667.31 367.97,632.04 C332.7,596.77 313.28,549.88 313.28,500 C313.28,450.12 332.7,403.23 367.97,367.96 C403.24,332.69 450.13,313.27 500,313.27 C549.87,313.27 596.77,332.69 632.03,367.96 C667.3,403.23 686.72,450.12 686.72,500 C686.72,549.88 667.3,596.77 632.03,632.04 C596.76,667.31 549.87,686.73 500,686.73 z" fill="#EBE3D4"/>
      </g>
    </g>
  </g>
</svg>
