<?xml version="1.0" encoding="UTF-8"?>
<!DOCTYPE svg PUBLIC "-//W3C//DTD SVG 1.1//EN" "http://www.w3.org/Graphics/SVG/1.1/DTD/svg11.dtd">
<svg version="1.1" xmlns="http://www.w3.org/2000/svg" xmlns:xlink="http://www.w3.org/1999/xlink" x="0" y="0" width="700" height="700" viewBox="0, 0, 700, 700">
  <g id="Ebene_1">
    <g>
      <path d="M570.511,231.829 C570.511,231.829 597.601,258.178 628.113,302.025 C621.056,249.252 604.254,189.837 567.736,138.44 C527.302,81.518 469.529,44.066 417.76,19.984 C411.74,53.429 407.446,95.388 410.71,139.964 C413.54,178.459 421.993,218.854 439.987,257.324 C460.201,300.516 499.681,344.6 546.764,383.209 C556.482,391.17 606.578,426.869 619.614,434.002 C617.19,419.37 592.417,339.538 586.907,319.189 C573.215,268.571 570.511,231.829 570.511,231.829" fill="#E87152"/>
      <path d="M403.32,335.67 C403.32,335.67 440.705,335.408 492.799,345.325 C450.702,312.344 397.155,281.502 335.568,270.417 C267.373,258.144 200.857,272.175 147.937,291.574 C167.327,319.921 193.918,353.174 227.605,382.94 C256.702,408.642 291.04,431.721 330.651,446.642 C375.134,463.389 433.624,467.111 493.528,461.485 C505.887,460.323 565.837,450.466 579.913,446.345 C567.922,437.536 494.451,397.655 476.285,386.918 C431.095,360.199 403.32,335.67 403.32,335.67" fill="#F1A08B"/>
      <path d="M360.408,529.057 C360.408,529.057 386.19,502.342 429.35,472.506 C376.872,478.644 317.949,494.438 267.371,530.165 C211.358,569.724 175.069,627.021 151.993,678.544 C185.439,685.186 227.338,690.255 271.708,687.77 C310.031,685.623 350.143,677.873 388.166,660.497 C430.858,640.991 474.099,602.162 511.731,555.599 C519.498,545.996 554.175,496.361 561.05,483.409 C546.514,485.578 467.382,509.005 447.197,514.169 C396.989,526.996 360.408,529.057 360.408,529.057" fill="#191919"/>
    </g>
  </g>
</svg>
